<?xml version="1.0" encoding="utf-8"?>
<svg viewBox="578.0471 417.5763 1243.9059 964.8473" width="1243.9059" height="964.8473" xmlns="http://www.w3.org/2000/svg">
  <svg version="1.0" xmlns="http://www.w3.org/2000/svg" x="0" y="0" width="2400" height="1800" viewBox="0 0 340.000000 250.000000" preserveAspectRatio="xMidYMid meet" color-interpolation-filters="sRGB" transform="matrix(7.0588235294117645, 0, 0, 7.0588235294117645, 0, 17.64705882352939)">
    <g class="iconmbgsvg" transform="translate(81.88999938964844,56.656646728515625)">
      <g fill="#18babd" hollow-target="textRect">
        <g transform="translate(13.110000610351562,0)" mask="url(#1867892c-f952-46d9-92a5-5dc2d219f981)">
          <g>
            <rect fill="#18babd" fill-opacity="0" stroke-width="2" x="0" y="0" width="150" height="136.6867140513942" class="image-rect"/>
            <svg x="0" y="0" width="150" height="136.6867140513942" filtersec="colorsb5829434517" class="image-svg-svg primary" style="overflow: visible;">
              <svg xmlns="http://www.w3.org/2000/svg" viewBox="0 0 168.77999877929688 153.79978942871094">
                <path d="M.34 0h64.83c24.3.07 41.68 17.07 41.91 41.31q.33 35.47 0 71c-.17 21.28-14.1 37.79-34.17 41-6.3 1-6.37 1-6.37-5.25V47.2c0-6.71 0-6.6-6.61-6.76-9.28-.21-18.67.22-27.8-1.08C14.81 36.88.38 20.06 0 3.16A28 28 0 0 1 .34 0z" fill="#18babd"/>
                <path d="M101.19.86h67.59l-34.25 56.71z" fill="#18babd"/>
              </svg>
            </svg>
          </g>
        </g>
        <g transform="translate(0,47.915353775024414)">
          <g fill-rule="" class="tp-name" transform="translate(0,0)">
            <g transform="scale(1)">
              <g>
                <path d="M0.36-21.81L0.36-24.95 19.85-24.95 19.85-21.81 11.8-21.81 11.8 0 8.38 0 8.38-21.81 0.36-21.81ZM30.44 0L20.39-24.95 24.06-24.95 32.29-3.81 40.53-24.95 44.13-24.95 34 0 30.44 0ZM64.62-4.78L64.62-12.19 67.65-12.19 67.65-3.03Q65.76-1.53 63.23-0.64 60.7 0.25 58.21 0.25L58.21 0.25Q54.61 0.25 51.61-1.44 48.62-3.14 46.89-6.08 45.16-9.02 45.16-12.51L45.16-12.51Q45.16-16 46.91-18.91 48.65-21.81 51.68-23.49 54.71-25.16 58.38-25.16L58.38-25.16Q60.99-25.16 63.46-24.24 65.94-23.31 67.76-21.71L67.76-21.71 65.8-19.21Q64.3-20.6 62.36-21.37 60.42-22.13 58.38-22.13L58.38-22.13Q55.71-22.13 53.47-20.85 51.22-19.57 49.92-17.36 48.62-15.15 48.62-12.51L48.62-12.51Q48.62-9.87 49.94-7.65 51.26-5.42 53.5-4.12 55.75-2.82 58.42-2.82L58.42-2.82Q59.99-2.82 61.61-3.33 63.23-3.85 64.62-4.78L64.62-4.78ZM80.27-21.81L80.27-24.95 99.77-24.95 99.77-21.81 91.71-21.81 91.71 0 88.29 0 88.29-21.81 80.27-21.81ZM105.08-14.79Q106-16.82 107.71-17.88 109.43-18.93 111.78-18.96L111.78-18.96 111.78-15.75Q108.89-15.86 107.11-14.26 105.33-12.65 105.08-9.94L105.08-9.94 105.08 0 101.76 0 101.76-18.86 105.08-18.86 105.08-14.79ZM129.35 0L126.07 0 126.07-2.64Q123.97 0.14 119.48 0.14L119.48 0.14Q117.52 0.14 116.04-0.61 114.56-1.35 113.76-2.67 112.95-3.99 112.95-5.63L112.95-5.63Q112.95-8.16 114.83-9.64 116.7-11.12 120.05-11.16L120.05-11.16 126.04-11.16 126.04-12.05Q126.04-14.04 124.81-15.13 123.58-16.22 121.22-16.22L121.22-16.22Q118.37-16.22 115.41-14.19L115.41-14.19 114.02-16.47Q116.06-17.79 117.78-18.37 119.51-18.96 121.9-18.96L121.9-18.96Q125.43-18.96 127.35-17.23 129.28-15.5 129.31-12.4L129.31-12.4 129.35 0ZM120.15-2.6Q122.47-2.6 124.09-3.72 125.71-4.85 126.04-6.7L126.04-6.7 126.04-8.59 120.51-8.59Q118.27-8.59 117.18-7.91 116.09-7.24 116.09-5.77L116.09-5.77Q116.09-4.31 117.2-3.46 118.3-2.6 120.15-2.6L120.15-2.6ZM138.83 0L131.45-18.86 134.98-18.86 140.65-3.28 146.28-18.86 149.63-18.86 142.29 0 138.83 0ZM159.68-18.96Q164.07-18.96 166.31-16.38 168.56-13.79 168.56-9.2L168.56-9.2Q168.56-8.48 168.52-8.13L168.52-8.13 153.62-8.13Q154.02-5.6 155.74-4.1 157.47-2.6 160-2.6L160-2.6Q161.68-2.6 163.12-3.21 164.57-3.81 165.64-4.92L165.64-4.92 167.45-3.03Q166.06-1.53 164.1-0.71 162.14 0.11 159.75 0.11L159.75 0.11Q156.97 0.11 154.82-1.09 152.66-2.28 151.47-4.46 150.27-6.63 150.27-9.41L150.27-9.41Q150.27-12.19 151.47-14.35 152.66-16.5 154.8-17.73 156.94-18.96 159.68-18.96L159.68-18.96ZM153.59-10.69L165.56-10.69Q165.42-13.26 163.85-14.74 162.29-16.22 159.72-16.22L159.72-16.22Q157.22-16.22 155.57-14.72 153.91-13.22 153.59-10.69L153.59-10.69ZM173.26 0L173.26-26.45 176.58-26.45 176.58 0 173.26 0Z" transform="translate(-0.36000001430511475, 26.450000762939453)"/>
              </g>
            </g>
          </g>
          <g fill-rule="" class="tp-slogan" fill="#000000" transform="translate(5,32.70000076293945)">
            <rect x="0" height="1" y="3.580000400543213" width="64.78000068664551"/>
            <rect height="1" y="3.580000400543213" width="64.78000068664551" x="101.44000053405762"/>
            <g transform="translate(67.78000068664551,0)">
              <g transform="scale(1)">
                <path d="M1.08-7.87L1.08 0L3.10 0C3.69 0 4.21-0.09 4.67-0.27C5.12-0.45 5.51-0.71 5.82-1.05C6.13-1.39 6.37-1.81 6.53-2.30C6.69-2.79 6.77-3.35 6.77-3.97C6.77-5.23 6.45-6.19 5.82-6.86C5.19-7.54 4.26-7.87 3.05-7.87ZM2.98-0.82L2.08-0.82L2.08-7.06L2.98-7.06C3.90-7.06 4.59-6.79 5.05-6.26C5.51-5.74 5.74-4.97 5.74-3.97C5.74-2.97 5.51-2.20 5.05-1.64C4.59-1.09 3.90-0.82 2.98-0.82ZM8.46-7.87L8.46 0L13.12 0L13.12-0.85L9.46-0.85L9.46-3.71L12.44-3.71L12.44-4.56L9.46-4.56L9.46-7.03L13.00-7.03L13.00-7.87ZM18.13-3.20L15.77-3.20L16.14-4.40C16.28-4.84 16.42-5.28 16.55-5.72C16.68-6.15 16.80-6.60 16.92-7.06L16.97-7.06C17.10-6.60 17.22-6.15 17.35-5.72C17.48-5.28 17.62-4.84 17.76-4.40ZM18.38-2.40L19.13 0L20.20 0L17.53-7.87L16.40-7.87L13.74 0L14.76 0L15.52-2.40ZM21.31-7.87L21.31 0L25.75 0L25.75-0.85L22.31-0.85L22.31-7.87ZM26.90-1.72L26.30-1.02C26.65-0.66 27.06-0.38 27.53-0.17C28.00 0.04 28.51 0.14 29.06 0.14C29.48 0.14 29.85 0.09 30.18-0.03C30.51-0.15 30.79-0.31 31.02-0.51C31.25-0.71 31.43-0.95 31.55-1.22C31.68-1.50 31.74-1.79 31.74-2.10C31.74-2.39 31.70-2.64 31.61-2.86C31.53-3.08 31.42-3.27 31.27-3.44C31.13-3.60 30.96-3.75 30.76-3.87C30.56-3.99 30.34-4.10 30.12-4.20L29.00-4.68C28.84-4.74 28.69-4.81 28.54-4.89C28.38-4.97 28.24-5.05 28.12-5.15C27.99-5.25 27.89-5.37 27.81-5.50C27.73-5.63 27.70-5.80 27.70-5.99C27.70-6.35 27.83-6.63 28.10-6.83C28.37-7.04 28.72-7.14 29.16-7.14C29.53-7.14 29.86-7.07 30.15-6.94C30.44-6.81 30.71-6.63 30.95-6.40L31.49-7.04C31.21-7.33 30.87-7.57 30.47-7.75C30.07-7.93 29.63-8.02 29.16-8.02C28.80-8.02 28.47-7.96 28.17-7.86C27.87-7.76 27.61-7.61 27.39-7.42C27.17-7.23 27.00-7.01 26.87-6.76C26.75-6.50 26.69-6.22 26.69-5.93C26.69-5.64 26.74-5.39 26.83-5.17C26.93-4.95 27.05-4.76 27.20-4.60C27.36-4.44 27.53-4.30 27.72-4.19C27.91-4.08 28.10-3.98 28.28-3.90L29.41-3.41C29.60-3.32 29.77-3.24 29.93-3.16C30.09-3.08 30.23-2.99 30.34-2.89C30.46-2.79 30.55-2.67 30.62-2.53C30.69-2.39 30.72-2.22 30.72-2.02C30.72-1.63 30.58-1.32 30.29-1.09C30-0.85 29.60-0.73 29.08-0.73C28.67-0.73 28.27-0.82 27.89-1.00C27.51-1.18 27.18-1.42 26.90-1.72Z" transform="translate(-1.08, 8.016)"/>
              </g>
            </g>
          </g>
        </g>
      </g>
    </g>
    <mask id="1867892c-f952-46d9-92a5-5dc2d219f981">
      <g fill="white">
        <g>
          <rect fill-opacity="1" stroke-width="2" x="0" y="0" width="150" height="136.6867140513942" class="image-rect"/>
          <svg x="0" y="0" width="150" height="136.6867140513942" filtersec="colorsb5829434517" class="image-svg-svg primary" style="overflow: visible;">
            <svg xmlns="http://www.w3.org/2000/svg" viewBox="0 0 168.77999877929688 153.79978942871094">
              <path d="M.34 0h64.83c24.3.07 41.68 17.07 41.91 41.31q.33 35.47 0 71c-.17 21.28-14.1 37.79-34.17 41-6.3 1-6.37 1-6.37-5.25V47.2c0-6.71 0-6.6-6.61-6.76-9.28-.21-18.67.22-27.8-1.08C14.81 36.88.38 20.06 0 3.16A28 28 0 0 1 .34 0z"/>
              <path d="M101.19.86h67.59l-34.25 56.71z"/>
            </svg>
          </svg>
        </g>
      </g>
      <g transform="translate(-13.110000610351562,47.915353775024414)">
        <rect fill="black" fill-opacity="1" x="-3.5" y="-3.5" width="183.22000122070312" height="33.70000076293945"/>
        <rect fill="black" fill-opacity="1" x="-3.5" y="-3.5" transform="translate(5,32.70000076293945)" width="173.22000122070312" height="15.160000801086426"/>
      </g>
      <g transform="translate(-13.110000610351562,47.915353775024414)" fill="black">
        <g fill-rule="" class="tp-name" transform="translate(0,0)">
          <g transform="scale(1)">
            <g>
              <path d="M0.36-21.81L0.36-24.95 19.85-24.95 19.85-21.81 11.8-21.81 11.8 0 8.38 0 8.38-21.81 0.36-21.81ZM30.44 0L20.39-24.95 24.06-24.95 32.29-3.81 40.53-24.95 44.13-24.95 34 0 30.44 0ZM64.62-4.78L64.62-12.19 67.65-12.19 67.65-3.03Q65.76-1.53 63.23-0.64 60.7 0.25 58.21 0.25L58.21 0.25Q54.61 0.25 51.61-1.44 48.62-3.14 46.89-6.08 45.16-9.02 45.16-12.51L45.16-12.51Q45.16-16 46.91-18.91 48.65-21.81 51.68-23.49 54.71-25.16 58.38-25.16L58.38-25.16Q60.99-25.16 63.46-24.24 65.94-23.31 67.76-21.71L67.76-21.71 65.8-19.21Q64.3-20.6 62.36-21.37 60.42-22.13 58.38-22.13L58.38-22.13Q55.71-22.13 53.47-20.85 51.22-19.57 49.92-17.36 48.62-15.15 48.62-12.51L48.62-12.51Q48.62-9.87 49.94-7.65 51.26-5.42 53.5-4.12 55.75-2.82 58.42-2.82L58.42-2.82Q59.99-2.82 61.61-3.33 63.23-3.85 64.62-4.78L64.62-4.78ZM80.27-21.81L80.27-24.95 99.77-24.95 99.77-21.81 91.71-21.81 91.71 0 88.29 0 88.29-21.81 80.27-21.81ZM105.08-14.79Q106-16.82 107.71-17.88 109.43-18.93 111.78-18.96L111.78-18.96 111.78-15.75Q108.89-15.86 107.11-14.26 105.33-12.65 105.08-9.94L105.08-9.94 105.08 0 101.76 0 101.76-18.86 105.08-18.86 105.08-14.79ZM129.35 0L126.07 0 126.07-2.64Q123.97 0.14 119.48 0.14L119.48 0.14Q117.52 0.14 116.04-0.61 114.56-1.35 113.76-2.67 112.95-3.99 112.95-5.63L112.95-5.63Q112.95-8.16 114.83-9.64 116.7-11.12 120.05-11.16L120.05-11.16 126.04-11.16 126.04-12.05Q126.04-14.04 124.81-15.13 123.58-16.22 121.22-16.22L121.22-16.22Q118.37-16.22 115.41-14.19L115.41-14.19 114.02-16.47Q116.06-17.79 117.78-18.37 119.51-18.96 121.9-18.96L121.9-18.96Q125.43-18.96 127.35-17.23 129.28-15.5 129.31-12.4L129.31-12.4 129.35 0ZM120.15-2.6Q122.47-2.6 124.09-3.72 125.71-4.85 126.04-6.7L126.04-6.7 126.04-8.59 120.51-8.59Q118.27-8.59 117.18-7.91 116.09-7.24 116.09-5.77L116.09-5.77Q116.09-4.31 117.2-3.46 118.3-2.6 120.15-2.6L120.15-2.6ZM138.83 0L131.45-18.86 134.98-18.86 140.65-3.28 146.28-18.86 149.63-18.86 142.29 0 138.83 0ZM159.68-18.96Q164.07-18.96 166.31-16.38 168.56-13.79 168.56-9.2L168.56-9.2Q168.56-8.48 168.52-8.13L168.52-8.13 153.62-8.13Q154.02-5.6 155.74-4.1 157.47-2.6 160-2.6L160-2.6Q161.68-2.6 163.12-3.21 164.57-3.81 165.64-4.92L165.64-4.92 167.45-3.03Q166.06-1.53 164.1-0.71 162.14 0.11 159.75 0.11L159.75 0.11Q156.97 0.11 154.82-1.09 152.66-2.28 151.47-4.46 150.27-6.63 150.27-9.41L150.27-9.41Q150.27-12.19 151.47-14.35 152.66-16.5 154.8-17.73 156.94-18.96 159.68-18.96L159.68-18.96ZM153.59-10.69L165.56-10.69Q165.42-13.26 163.85-14.74 162.29-16.22 159.72-16.22L159.72-16.22Q157.22-16.22 155.57-14.72 153.91-13.22 153.59-10.69L153.59-10.69ZM173.26 0L173.26-26.45 176.58-26.45 176.58 0 173.26 0Z" transform="translate(-0.36000001430511475, 26.450000762939453)"/>
            </g>
          </g>
        </g>
        <g fill-rule="" class="tp-slogan" transform="translate(5,32.70000076293945)">
          <rect x="0" height="1" y="3.580000400543213" width="64.78000068664551"/>
          <rect height="1" y="3.580000400543213" width="64.78000068664551" x="101.44000053405762"/>
          <g transform="translate(67.78000068664551,0)">
            <g transform="scale(1)">
              <path d="M1.08-7.87L1.08 0L3.10 0C3.69 0 4.21-0.09 4.67-0.27C5.12-0.45 5.51-0.71 5.82-1.05C6.13-1.39 6.37-1.81 6.53-2.30C6.69-2.79 6.77-3.35 6.77-3.97C6.77-5.23 6.45-6.19 5.82-6.86C5.19-7.54 4.26-7.87 3.05-7.87ZM2.98-0.82L2.08-0.82L2.08-7.06L2.98-7.06C3.90-7.06 4.59-6.79 5.05-6.26C5.51-5.74 5.74-4.97 5.74-3.97C5.74-2.97 5.51-2.20 5.05-1.64C4.59-1.09 3.90-0.82 2.98-0.82ZM8.46-7.87L8.46 0L13.12 0L13.12-0.85L9.46-0.85L9.46-3.71L12.44-3.71L12.44-4.56L9.46-4.56L9.46-7.03L13.00-7.03L13.00-7.87ZM18.13-3.20L15.77-3.20L16.14-4.40C16.28-4.84 16.42-5.28 16.55-5.72C16.68-6.15 16.80-6.60 16.92-7.06L16.97-7.06C17.10-6.60 17.22-6.15 17.35-5.72C17.48-5.28 17.62-4.84 17.76-4.40ZM18.38-2.40L19.13 0L20.20 0L17.53-7.87L16.40-7.87L13.74 0L14.76 0L15.52-2.40ZM21.31-7.87L21.31 0L25.75 0L25.75-0.85L22.31-0.85L22.31-7.87ZM26.90-1.72L26.30-1.02C26.65-0.66 27.06-0.38 27.53-0.17C28.00 0.04 28.51 0.14 29.06 0.14C29.48 0.14 29.85 0.09 30.18-0.03C30.51-0.15 30.79-0.31 31.02-0.51C31.25-0.71 31.43-0.95 31.55-1.22C31.68-1.50 31.74-1.79 31.74-2.10C31.74-2.39 31.70-2.64 31.61-2.86C31.53-3.08 31.42-3.27 31.27-3.44C31.13-3.60 30.96-3.75 30.76-3.87C30.56-3.99 30.34-4.10 30.12-4.20L29.00-4.68C28.84-4.74 28.69-4.81 28.54-4.89C28.38-4.97 28.24-5.05 28.12-5.15C27.99-5.25 27.89-5.37 27.81-5.50C27.73-5.63 27.70-5.80 27.70-5.99C27.70-6.35 27.83-6.63 28.10-6.83C28.37-7.04 28.72-7.14 29.16-7.14C29.53-7.14 29.86-7.07 30.15-6.94C30.44-6.81 30.71-6.63 30.95-6.40L31.49-7.04C31.21-7.33 30.87-7.57 30.47-7.75C30.07-7.93 29.63-8.02 29.16-8.02C28.80-8.02 28.47-7.96 28.17-7.86C27.87-7.76 27.61-7.61 27.39-7.42C27.17-7.23 27.00-7.01 26.87-6.76C26.75-6.50 26.69-6.22 26.69-5.93C26.69-5.64 26.74-5.39 26.83-5.17C26.93-4.95 27.05-4.76 27.20-4.60C27.36-4.44 27.53-4.30 27.72-4.19C27.91-4.08 28.10-3.98 28.28-3.90L29.41-3.41C29.60-3.32 29.77-3.24 29.93-3.16C30.09-3.08 30.23-2.99 30.34-2.89C30.46-2.79 30.55-2.67 30.62-2.53C30.69-2.39 30.72-2.22 30.72-2.02C30.72-1.63 30.58-1.32 30.29-1.09C30-0.85 29.60-0.73 29.08-0.73C28.67-0.73 28.27-0.82 27.89-1.00C27.51-1.18 27.18-1.42 26.90-1.72Z" transform="translate(-1.08, 8.016)"/>
            </g>
          </g>
        </g>
      </g>
    </mask>
  </svg>
</svg>